<?xml version="1.0" encoding="UTF-8" standalone="no"?>
<!DOCTYPE svg PUBLIC "-//W3C//DTD SVG 1.1//EN"
 "http://www.w3.org/Graphics/SVG/1.1/DTD/svg11.dtd">
<!-- Generated by graphviz version 14.0.5 (20251129.0259)
 -->
<!-- Title: dc6ba69d9712e3fbe4546943ce850c174993a8dd Pages: 1 -->
<svg width="2652pt" height="758pt"
 viewBox="0.00 0.00 2652.00 758.00" xmlns="http://www.w3.org/2000/svg" xmlns:xlink="http://www.w3.org/1999/xlink">
<g id="graph0" class="graph" transform="scale(1 1) rotate(0) translate(4 754)">
<title>dc6ba69d9712e3fbe4546943ce850c174993a8dd</title>
<polygon fill="white" stroke="none" points="-4,4 -4,-754 2648.25,-754 2648.25,4 -4,4"/>
<!-- DateTime -->
<g id="node1" class="node">
<title>DateTime</title>
<polygon fill="#fcaf3e" stroke="none" points="411.62,-714 411.62,-734.25 470.88,-734.25 470.88,-714 411.62,-714"/>
<polygon fill="none" stroke="#2e3436" points="411.62,-714 411.62,-734.25 470.88,-734.25 470.88,-714 411.62,-714"/>
<text xml:space="preserve" text-anchor="start" x="414.62" y="-720.85" font-family="Helvetica,sans-Serif" font-weight="bold" font-size="12.00" fill="#2e3436">DateTime</text>
<polygon fill="#eeeeec" stroke="none" points="411.62,-691.5 411.62,-714 470.88,-714 470.88,-691.5 411.62,-691.5"/>
<polygon fill="none" stroke="#2e3436" points="411.62,-691.5 411.62,-714 470.88,-714 470.88,-691.5 411.62,-691.5"/>
<text xml:space="preserve" text-anchor="start" x="414.62" y="-697.7" font-family="Times New Roman,serif" font-size="14.00"> </text>
<polygon fill="#eeeeec" stroke="none" points="411.62,-669 411.62,-691.5 470.88,-691.5 470.88,-669 411.62,-669"/>
<polygon fill="none" stroke="#2e3436" points="411.62,-669 411.62,-691.5 470.88,-691.5 470.88,-669 411.62,-669"/>
<text xml:space="preserve" text-anchor="start" x="414.62" y="-675.2" font-family="Times New Roman,serif" font-size="14.00"> </text>
</g>
<!-- CarrieraLaureando -->
<g id="node2" class="node">
<title>CarrieraLaureando</title>
<polygon fill="#fcaf3e" stroke="none" points="118,-593 118,-613.25 410.5,-613.25 410.5,-593 118,-593"/>
<polygon fill="none" stroke="#2e3436" points="118,-593 118,-613.25 410.5,-613.25 410.5,-593 118,-593"/>
<text xml:space="preserve" text-anchor="start" x="210.25" y="-599.85" font-family="Helvetica,sans-Serif" font-weight="bold" font-size="12.00" fill="#2e3436">CarrieraLaureando</text>
<polygon fill="#eeeeec" stroke="none" points="118,-491 118,-593 410.5,-593 410.5,-491 118,-491"/>
<polygon fill="none" stroke="#2e3436" points="118,-491 118,-593 410.5,-593 410.5,-491 118,-491"/>
<text xml:space="preserve" text-anchor="start" x="121" y="-580.5" font-family="Helvetica,sans-Serif" font-size="10.00" fill="#2e3436">#$matricola: int</text>
<text xml:space="preserve" text-anchor="start" x="121" y="-568.5" font-family="Helvetica,sans-Serif" font-size="10.00" fill="#2e3436">#$nome: string</text>
<text xml:space="preserve" text-anchor="start" x="121" y="-556.5" font-family="Helvetica,sans-Serif" font-size="10.00" fill="#2e3436">#$cognome: string</text>
<text xml:space="preserve" text-anchor="start" x="121" y="-544.5" font-family="Helvetica,sans-Serif" font-size="10.00" fill="#2e3436">#$email: string</text>
<text xml:space="preserve" text-anchor="start" x="121" y="-532.5" font-family="Helvetica,sans-Serif" font-size="10.00" fill="#2e3436">#$media: float</text>
<text xml:space="preserve" text-anchor="start" x="121" y="-520.5" font-family="Helvetica,sans-Serif" font-size="10.00" fill="#2e3436">#$annoImmatricolazione: int</text>
<text xml:space="preserve" text-anchor="start" x="121" y="-508.5" font-family="Helvetica,sans-Serif" font-size="10.00" fill="#2e3436">#$dataLaurea: DateTime</text>
<text xml:space="preserve" text-anchor="start" x="121" y="-496.5" font-family="Helvetica,sans-Serif" font-size="10.00" fill="#2e3436">#$esami: array</text>
<polygon fill="#eeeeec" stroke="none" points="118,-341 118,-491 410.5,-491 410.5,-341 118,-341"/>
<polygon fill="none" stroke="#2e3436" points="118,-341 118,-491 410.5,-491 410.5,-341 118,-341"/>
<text xml:space="preserve" text-anchor="start" x="121" y="-478.5" font-family="Helvetica,sans-Serif" font-size="10.00" fill="#2e3436">+__construct($matricola: int, $dataLaurea: DateTime, $cdl: string)</text>
<text xml:space="preserve" text-anchor="start" x="121" y="-466.5" font-family="Helvetica,sans-Serif" font-size="10.00" fill="#2e3436">+calcolaCFU(): int</text>
<text xml:space="preserve" text-anchor="start" x="121" y="-454.5" font-family="Helvetica,sans-Serif" font-size="10.00" fill="#2e3436">+ottieniTotaleCFU(): int</text>
<text xml:space="preserve" text-anchor="start" x="121" y="-442.5" font-family="Helvetica,sans-Serif" font-size="10.00" fill="#2e3436">+calcolaMedia(): void</text>
<text xml:space="preserve" text-anchor="start" x="121" y="-430.5" font-family="Helvetica,sans-Serif" font-size="10.00" fill="#2e3436">+getAnnoImmatricolazione(): int</text>
<text xml:space="preserve" text-anchor="start" x="121" y="-418.5" font-family="Helvetica,sans-Serif" font-size="10.00" fill="#2e3436">+getCognome(): string</text>
<text xml:space="preserve" text-anchor="start" x="121" y="-406.5" font-family="Helvetica,sans-Serif" font-size="10.00" fill="#2e3436">+getDataLaurea(): DateTime</text>
<text xml:space="preserve" text-anchor="start" x="121" y="-394.5" font-family="Helvetica,sans-Serif" font-size="10.00" fill="#2e3436">+getEmail(): string</text>
<text xml:space="preserve" text-anchor="start" x="121" y="-382.5" font-family="Helvetica,sans-Serif" font-size="10.00" fill="#2e3436">+getMatricola(): int</text>
<text xml:space="preserve" text-anchor="start" x="121" y="-370.5" font-family="Helvetica,sans-Serif" font-size="10.00" fill="#2e3436">+getNome(): string</text>
<text xml:space="preserve" text-anchor="start" x="121" y="-358.5" font-family="Helvetica,sans-Serif" font-size="10.00" fill="#2e3436">+getMedia(): float</text>
<text xml:space="preserve" text-anchor="start" x="121" y="-346.5" font-family="Helvetica,sans-Serif" font-size="10.00" fill="#2e3436">+getEsami(): array</text>
</g>
<!-- DateTime&#45;&gt;CarrieraLaureando -->
<g id="edge1" class="edge">
<title>DateTime&#45;&gt;CarrieraLaureando</title>
<path fill="none" stroke="#2e3436" d="M411.06,-665.06C411.06,-651.26 411.06,-634.62 411.06,-617.01"/>
</g>
<!-- CarrieraLaureandoIngInf -->
<g id="node3" class="node">
<title>CarrieraLaureandoIngInf</title>
<polygon fill="#fcaf3e" stroke="none" points="8,-252.75 8,-273 246.5,-273 246.5,-252.75 8,-252.75"/>
<polygon fill="none" stroke="#2e3436" points="8,-252.75 8,-273 246.5,-273 246.5,-252.75 8,-252.75"/>
<text xml:space="preserve" text-anchor="start" x="57.12" y="-259.6" font-family="Helvetica,sans-Serif" font-weight="bold" font-size="12.00" fill="#2e3436">CarrieraLaureandoIngInf</text>
<polygon fill="#eeeeec" stroke="none" points="8,-222.75 8,-252.75 246.5,-252.75 246.5,-222.75 8,-222.75"/>
<polygon fill="none" stroke="#2e3436" points="8,-222.75 8,-252.75 246.5,-252.75 246.5,-222.75 8,-222.75"/>
<text xml:space="preserve" text-anchor="start" x="11" y="-240.25" font-family="Helvetica,sans-Serif" font-size="10.00" fill="#2e3436">&#45;$mediaEsamiInformatici: float</text>
<text xml:space="preserve" text-anchor="start" x="11" y="-228.25" font-family="Helvetica,sans-Serif" font-size="10.00" fill="#2e3436">&#45;$bonus: bool</text>
<polygon fill="#eeeeec" stroke="none" points="8,-156.75 8,-222.75 246.5,-222.75 246.5,-156.75 8,-156.75"/>
<polygon fill="none" stroke="#2e3436" points="8,-156.75 8,-222.75 246.5,-222.75 246.5,-156.75 8,-156.75"/>
<text xml:space="preserve" text-anchor="start" x="11" y="-210.25" font-family="Helvetica,sans-Serif" font-size="10.00" fill="#2e3436">+__construct($matricola: int, $dataLaurea: DateTime)</text>
<text xml:space="preserve" text-anchor="start" x="11" y="-198.25" font-family="Helvetica,sans-Serif" font-size="10.00" fill="#2e3436">+calcolaMediaInformatica(): void</text>
<text xml:space="preserve" text-anchor="start" x="11" y="-186.25" font-family="Helvetica,sans-Serif" font-size="10.00" fill="#2e3436">+getMediaEsamiInformatici(): float</text>
<text xml:space="preserve" text-anchor="start" x="11" y="-174.25" font-family="Helvetica,sans-Serif" font-size="10.00" fill="#2e3436">+calcolaMedia(): void</text>
<text xml:space="preserve" text-anchor="start" x="11" y="-162.25" font-family="Helvetica,sans-Serif" font-size="10.00" fill="#2e3436">+isBonus(): bool</text>
</g>
<!-- DateTime&#45;&gt;CarrieraLaureandoIngInf -->
<g id="edge2" class="edge">
<title>DateTime&#45;&gt;CarrieraLaureandoIngInf</title>
<path fill="none" stroke="#2e3436" d="M403.86,-702C306.93,-702 55,-702 55,-702 55,-702 55,-407.65 55,-276.57"/>
</g>
<!-- GeneratoreProspetti -->
<g id="node7" class="node">
<title>GeneratoreProspetti</title>
<polygon fill="#fcaf3e" stroke="none" points="572,-503 572,-523.25 846.5,-523.25 846.5,-503 572,-503"/>
<polygon fill="none" stroke="#2e3436" points="572,-503 572,-523.25 846.5,-523.25 846.5,-503 572,-503"/>
<text xml:space="preserve" text-anchor="start" x="651.5" y="-509.85" font-family="Helvetica,sans-Serif" font-weight="bold" font-size="12.00" fill="#2e3436">GeneratoreProspetti</text>
<polygon fill="#eeeeec" stroke="none" points="572,-461 572,-503 846.5,-503 846.5,-461 572,-461"/>
<polygon fill="none" stroke="#2e3436" points="572,-461 572,-503 846.5,-503 846.5,-461 572,-461"/>
<text xml:space="preserve" text-anchor="start" x="575" y="-490.5" font-family="Helvetica,sans-Serif" font-size="10.00" fill="#2e3436">&#45;$data: Datetime</text>
<text xml:space="preserve" text-anchor="start" x="575" y="-478.5" font-family="Helvetica,sans-Serif" font-size="10.00" fill="#2e3436">&#45;$cdl: string</text>
<text xml:space="preserve" text-anchor="start" x="575" y="-466.5" font-family="Helvetica,sans-Serif" font-size="10.00" fill="#2e3436">&#45;$matricole: array</text>
<polygon fill="#eeeeec" stroke="none" points="572,-431 572,-461 846.5,-461 846.5,-431 572,-431"/>
<polygon fill="none" stroke="#2e3436" points="572,-431 572,-461 846.5,-461 846.5,-431 572,-431"/>
<text xml:space="preserve" text-anchor="start" x="575" y="-448.5" font-family="Helvetica,sans-Serif" font-size="10.00" fill="#2e3436">+__construct($data: DateTime, $cdl: string, $matricole: array)</text>
<text xml:space="preserve" text-anchor="start" x="575" y="-436.5" font-family="Helvetica,sans-Serif" font-size="10.00" fill="#2e3436">+generaProspetti(): int</text>
</g>
<!-- DateTime&#45;&gt;GeneratoreProspetti -->
<g id="edge5" class="edge">
<title>DateTime&#45;&gt;GeneratoreProspetti</title>
<path fill="none" stroke="#2e3436" d="M450.79,-665.07C450.79,-612.29 450.79,-521 450.79,-521 450.79,-521 505.24,-521 564.16,-521"/>
</g>
<!-- ProspettoPDFCommissione -->
<g id="node10" class="node">
<title>ProspettoPDFCommissione</title>
<polygon fill="#fcaf3e" stroke="none" points="880.75,-521 880.75,-541.25 1321.75,-541.25 1321.75,-521 880.75,-521"/>
<polygon fill="none" stroke="#2e3436" points="880.75,-521 880.75,-541.25 1321.75,-541.25 1321.75,-521 880.75,-521"/>
<text xml:space="preserve" text-anchor="start" x="1021.38" y="-527.85" font-family="Helvetica,sans-Serif" font-weight="bold" font-size="12.00" fill="#2e3436">ProspettoPDFCommissione</text>
<polygon fill="#eeeeec" stroke="none" points="880.75,-479 880.75,-521 1321.75,-521 1321.75,-479 880.75,-479"/>
<polygon fill="none" stroke="#2e3436" points="880.75,-479 880.75,-521 1321.75,-521 1321.75,-479 880.75,-479"/>
<text xml:space="preserve" text-anchor="start" x="883.75" y="-508.5" font-family="Helvetica,sans-Serif" font-size="10.00" fill="#2e3436">&#45;$data: DateTime</text>
<text xml:space="preserve" text-anchor="start" x="883.75" y="-496.5" font-family="Helvetica,sans-Serif" font-size="10.00" fill="#2e3436">&#45;$cdl: string</text>
<text xml:space="preserve" text-anchor="start" x="883.75" y="-484.5" font-family="Helvetica,sans-Serif" font-size="10.00" fill="#2e3436">&#45;$pdf: Mpdf</text>
<polygon fill="#eeeeec" stroke="none" points="880.75,-413 880.75,-479 1321.75,-479 1321.75,-413 880.75,-413"/>
<polygon fill="none" stroke="#2e3436" points="880.75,-413 880.75,-479 1321.75,-479 1321.75,-413 880.75,-413"/>
<text xml:space="preserve" text-anchor="start" x="883.75" y="-466.5" font-family="Helvetica,sans-Serif" font-size="10.00" fill="#2e3436">+__construct($data: DateTime, $cdl: string)</text>
<text xml:space="preserve" text-anchor="start" x="883.75" y="-454.5" font-family="Helvetica,sans-Serif" font-size="10.00" fill="#2e3436">+creaPDFCommissione($nomi: array, $cognomi: array): void</text>
<text xml:space="preserve" text-anchor="start" x="883.75" y="-442.5" font-family="Helvetica,sans-Serif" font-size="10.00" fill="#2e3436">+aggiungiLaureando($prospetto: ProspettoPDFLaureando, $infoCdl: array): void</text>
<text xml:space="preserve" text-anchor="start" x="883.75" y="-430.5" font-family="Helvetica,sans-Serif" font-size="10.00" fill="#2e3436">&#45;aggiungiSimulazione(&amp;$dom: DOMDocument, $infoCdl: array, $laureando: CarrieraLaureando): void</text>
<text xml:space="preserve" text-anchor="start" x="883.75" y="-418.5" font-family="Helvetica,sans-Serif" font-size="10.00" fill="#2e3436">+salvaPDF(): void</text>
</g>
<!-- DateTime&#45;&gt;ProspettoPDFCommissione -->
<g id="edge6" class="edge">
<title>DateTime&#45;&gt;ProspettoPDFCommissione</title>
<path fill="none" stroke="#2e3436" d="M464.83,-665.28C464.83,-616.52 464.83,-536 464.83,-536 464.83,-536 690.3,-536 872.84,-536"/>
</g>
<!-- CarrieraLaureando&#45;&gt;CarrieraLaureandoIngInf -->
<g id="edge3" class="edge">
<title>CarrieraLaureando&#45;&gt;CarrieraLaureandoIngInf</title>
<path fill="none" stroke="#2e3436" d="M182.25,-325.66C182.25,-325.66 182.25,-276.95 182.25,-276.95"/>
<polygon fill="none" stroke="#2e3436" points="178.75,-325.66 182.25,-335.66 185.75,-325.66 178.75,-325.66"/>
</g>
<!-- ProspettoPDFLaureando -->
<g id="node12" class="node">
<title>ProspettoPDFLaureando</title>
<polygon fill="#fcaf3e" stroke="none" points="302.88,-276.75 302.88,-297 633.62,-297 633.62,-276.75 302.88,-276.75"/>
<polygon fill="none" stroke="#2e3436" points="302.88,-276.75 302.88,-297 633.62,-297 633.62,-276.75 302.88,-276.75"/>
<text xml:space="preserve" text-anchor="start" x="396.62" y="-283.6" font-family="Helvetica,sans-Serif" font-weight="bold" font-size="12.00" fill="#2e3436">ProspettoPDFLaureando</text>
<polygon fill="#eeeeec" stroke="none" points="302.88,-222.75 302.88,-276.75 633.62,-276.75 633.62,-222.75 302.88,-222.75"/>
<polygon fill="none" stroke="#2e3436" points="302.88,-222.75 302.88,-276.75 633.62,-276.75 633.62,-222.75 302.88,-222.75"/>
<text xml:space="preserve" text-anchor="start" x="305.88" y="-264.25" font-family="Helvetica,sans-Serif" font-size="10.00" fill="#2e3436">#$laureando: CarrieraLaureando</text>
<text xml:space="preserve" text-anchor="start" x="305.88" y="-252.25" font-family="Helvetica,sans-Serif" font-size="10.00" fill="#2e3436">&#45;$CdL: string</text>
<text xml:space="preserve" text-anchor="start" x="305.88" y="-240.25" font-family="Helvetica,sans-Serif" font-size="10.00" fill="#2e3436">&#45;$infoCdl: array</text>
<text xml:space="preserve" text-anchor="start" x="305.88" y="-228.25" font-family="Helvetica,sans-Serif" font-size="10.00" fill="#2e3436">#$dom: DOMDocument</text>
<polygon fill="#eeeeec" stroke="none" points="302.88,-132.75 302.88,-222.75 633.62,-222.75 633.62,-132.75 302.88,-132.75"/>
<polygon fill="none" stroke="#2e3436" points="302.88,-132.75 302.88,-222.75 633.62,-222.75 633.62,-132.75 302.88,-132.75"/>
<text xml:space="preserve" text-anchor="start" x="305.88" y="-210.25" font-family="Helvetica,sans-Serif" font-size="10.00" fill="#2e3436">+__construct($CdL: string, $laureando: CarrieraLaureando, $infoCdl: array)</text>
<text xml:space="preserve" text-anchor="start" x="305.88" y="-198.25" font-family="Helvetica,sans-Serif" font-size="10.00" fill="#2e3436">+aggiungiIntestazione(): void</text>
<text xml:space="preserve" text-anchor="start" x="305.88" y="-186.25" font-family="Helvetica,sans-Serif" font-size="10.00" fill="#2e3436">+aggiungiTabellaCarriera(): void</text>
<text xml:space="preserve" text-anchor="start" x="305.88" y="-174.25" font-family="Helvetica,sans-Serif" font-size="10.00" fill="#2e3436">+aggiungiMedia(): void</text>
<text xml:space="preserve" text-anchor="start" x="305.88" y="-162.25" font-family="Helvetica,sans-Serif" font-size="10.00" fill="#2e3436">+salvaPDF(): void</text>
<text xml:space="preserve" text-anchor="start" x="305.88" y="-150.25" font-family="Helvetica,sans-Serif" font-size="10.00" fill="#2e3436">+getDom(): DOMDocument</text>
<text xml:space="preserve" text-anchor="start" x="305.88" y="-138.25" font-family="Helvetica,sans-Serif" font-size="10.00" fill="#2e3436">+getLaureando(): CarrieraLaureando</text>
</g>
<!-- CarrieraLaureando&#45;&gt;ProspettoPDFLaureando -->
<g id="edge8" class="edge">
<title>CarrieraLaureando&#45;&gt;ProspettoPDFLaureando</title>
<path fill="none" stroke="#2e3436" d="M356.69,-337.17C356.69,-324.84 356.69,-312.62 356.69,-300.94"/>
</g>
<!-- ConfigurazioneLaurea -->
<g id="node4" class="node">
<title>ConfigurazioneLaurea</title>
<polygon fill="#fcaf3e" stroke="none" points="1154,-725.75 1154,-746 1434.5,-746 1434.5,-725.75 1154,-725.75"/>
<polygon fill="none" stroke="#2e3436" points="1154,-725.75 1154,-746 1434.5,-746 1434.5,-725.75 1154,-725.75"/>
<text xml:space="preserve" text-anchor="start" x="1230.5" y="-732.6" font-family="Helvetica,sans-Serif" font-weight="bold" font-size="12.00" fill="#2e3436">ConfigurazioneLaurea</text>
<polygon fill="#eeeeec" stroke="none" points="1154,-703.25 1154,-725.75 1434.5,-725.75 1434.5,-703.25 1154,-703.25"/>
<polygon fill="none" stroke="#2e3436" points="1154,-703.25 1154,-725.75 1434.5,-725.75 1434.5,-703.25 1154,-703.25"/>
<text xml:space="preserve" text-anchor="start" x="1157" y="-709.45" font-family="Times New Roman,serif" font-size="14.00"> </text>
<polygon fill="#eeeeec" stroke="none" points="1154,-657.25 1154,-703.25 1434.5,-703.25 1434.5,-657.25 1154,-657.25"/>
<polygon fill="none" stroke="#2e3436" points="1154,-657.25 1154,-703.25 1434.5,-703.25 1434.5,-657.25 1154,-657.25"/>
<text xml:space="preserve" text-anchor="start" x="1157" y="-691.75" font-family="Helvetica,sans-Serif" text-decoration="underline" font-size="10.00" fill="#2e3436">+prelevaInfoEmail($cdl: string): array|null</text>
<text xml:space="preserve" text-anchor="start" x="1157" y="-681.75" font-family="Helvetica,sans-Serif" text-decoration="underline" font-size="10.00" fill="#2e3436">+prelevaEsamiInformatici(): array|null</text>
<text xml:space="preserve" text-anchor="start" x="1157" y="-671.75" font-family="Helvetica,sans-Serif" text-decoration="underline" font-size="10.00" fill="#2e3436">+prelevaInfoCdl($cdl: string): array|null</text>
<text xml:space="preserve" text-anchor="start" x="1157" y="-661.75" font-family="Helvetica,sans-Serif" text-decoration="underline" font-size="10.00" fill="#2e3436">&#45;validaJSON($jsonPath: string, $jsonSchemaPath: string): bool</text>
</g>
<!-- FiltroEsami -->
<g id="node5" class="node">
<title>FiltroEsami</title>
<polygon fill="#fcaf3e" stroke="none" points="1468.88,-711.75 1468.88,-732 1733.62,-732 1733.62,-711.75 1468.88,-711.75"/>
<polygon fill="none" stroke="#2e3436" points="1468.88,-711.75 1468.88,-732 1733.62,-732 1733.62,-711.75 1468.88,-711.75"/>
<text xml:space="preserve" text-anchor="start" x="1569" y="-718.6" font-family="Helvetica,sans-Serif" font-weight="bold" font-size="12.00" fill="#2e3436">FiltroEsami</text>
<polygon fill="#eeeeec" stroke="none" points="1468.88,-689.25 1468.88,-711.75 1733.62,-711.75 1733.62,-689.25 1468.88,-689.25"/>
<polygon fill="none" stroke="#2e3436" points="1468.88,-689.25 1468.88,-711.75 1733.62,-711.75 1733.62,-689.25 1468.88,-689.25"/>
<text xml:space="preserve" text-anchor="start" x="1471.88" y="-695.45" font-family="Times New Roman,serif" font-size="14.00"> </text>
<polygon fill="#eeeeec" stroke="none" points="1468.88,-671.25 1468.88,-689.25 1733.62,-689.25 1733.62,-671.25 1468.88,-671.25"/>
<polygon fill="none" stroke="#2e3436" points="1468.88,-671.25 1468.88,-689.25 1733.62,-689.25 1733.62,-671.25 1468.88,-671.25"/>
<text xml:space="preserve" text-anchor="start" x="1471.88" y="-677.75" font-family="Helvetica,sans-Serif" text-decoration="underline" font-size="10.00" fill="#2e3436">+prelevaEsamiFiltrati($matricola: int, $cdl: string): array|null</text>
</g>
<!-- Datetime -->
<g id="node6" class="node">
<title>Datetime</title>
<polygon fill="#fcaf3e" stroke="none" points="681.12,-714 681.12,-734.25 737.38,-734.25 737.38,-714 681.12,-714"/>
<polygon fill="none" stroke="#2e3436" points="681.12,-714 681.12,-734.25 737.38,-734.25 737.38,-714 681.12,-714"/>
<text xml:space="preserve" text-anchor="start" x="684.12" y="-720.85" font-family="Helvetica,sans-Serif" font-weight="bold" font-size="12.00" fill="#2e3436">Datetime</text>
<polygon fill="#eeeeec" stroke="none" points="681.12,-691.5 681.12,-714 737.38,-714 737.38,-691.5 681.12,-691.5"/>
<polygon fill="none" stroke="#2e3436" points="681.12,-691.5 681.12,-714 737.38,-714 737.38,-691.5 681.12,-691.5"/>
<text xml:space="preserve" text-anchor="start" x="684.12" y="-697.7" font-family="Times New Roman,serif" font-size="14.00"> </text>
<polygon fill="#eeeeec" stroke="none" points="681.12,-669 681.12,-691.5 737.38,-691.5 737.38,-669 681.12,-669"/>
<polygon fill="none" stroke="#2e3436" points="681.12,-669 681.12,-691.5 737.38,-691.5 737.38,-669 681.12,-669"/>
<text xml:space="preserve" text-anchor="start" x="684.12" y="-675.2" font-family="Times New Roman,serif" font-size="14.00"> </text>
</g>
<!-- Datetime&#45;&gt;GeneratoreProspetti -->
<g id="edge4" class="edge">
<title>Datetime&#45;&gt;GeneratoreProspetti</title>
<path fill="none" stroke="#2e3436" d="M709.25,-665.06C709.25,-627.53 709.25,-568.89 709.25,-527.1"/>
</g>
<!-- GestioneCarrieraStudente -->
<g id="node8" class="node">
<title>GestioneCarrieraStudente</title>
<polygon fill="#fcaf3e" stroke="none" points="1768.12,-720.75 1768.12,-741 2034.38,-741 2034.38,-720.75 1768.12,-720.75"/>
<polygon fill="none" stroke="#2e3436" points="1768.12,-720.75 1768.12,-741 2034.38,-741 2034.38,-720.75 1768.12,-720.75"/>
<text xml:space="preserve" text-anchor="start" x="1827" y="-727.6" font-family="Helvetica,sans-Serif" font-weight="bold" font-size="12.00" fill="#2e3436">GestioneCarrieraStudente</text>
<polygon fill="#eeeeec" stroke="none" points="1768.12,-698.25 1768.12,-720.75 2034.38,-720.75 2034.38,-698.25 1768.12,-698.25"/>
<polygon fill="none" stroke="#2e3436" points="1768.12,-698.25 1768.12,-720.75 2034.38,-720.75 2034.38,-698.25 1768.12,-698.25"/>
<text xml:space="preserve" text-anchor="start" x="1771.12" y="-704.45" font-family="Times New Roman,serif" font-size="14.00"> </text>
<polygon fill="#eeeeec" stroke="none" points="1768.12,-662.25 1768.12,-698.25 2034.38,-698.25 2034.38,-662.25 1768.12,-662.25"/>
<polygon fill="none" stroke="#2e3436" points="1768.12,-662.25 1768.12,-698.25 2034.38,-698.25 2034.38,-662.25 1768.12,-662.25"/>
<text xml:space="preserve" text-anchor="start" x="1771.12" y="-686.75" font-family="Helvetica,sans-Serif" text-decoration="underline" font-size="10.00" fill="#2e3436">+prelevaAnagraficaStudente($matricola: int): array</text>
<text xml:space="preserve" text-anchor="start" x="1771.12" y="-676.75" font-family="Helvetica,sans-Serif" text-decoration="underline" font-size="10.00" fill="#2e3436">+prelevaCarrieraStudente($matricola: int, $cdl: string): array</text>
<text xml:space="preserve" text-anchor="start" x="1771.12" y="-666.75" font-family="Helvetica,sans-Serif" text-decoration="underline" font-size="10.00" fill="#2e3436">+prelevaNomiCognomi($matricole: array): array</text>
</g>
<!-- InviaProspetti -->
<g id="node9" class="node">
<title>InviaProspetti</title>
<polygon fill="#fcaf3e" stroke="none" points="2068.62,-717.75 2068.62,-738 2445.88,-738 2445.88,-717.75 2068.62,-717.75"/>
<polygon fill="none" stroke="#2e3436" points="2068.62,-717.75 2068.62,-738 2445.88,-738 2445.88,-717.75 2068.62,-717.75"/>
<text xml:space="preserve" text-anchor="start" x="2217.88" y="-724.6" font-family="Helvetica,sans-Serif" font-weight="bold" font-size="12.00" fill="#2e3436">InviaProspetti</text>
<polygon fill="#eeeeec" stroke="none" points="2068.62,-695.25 2068.62,-717.75 2445.88,-717.75 2445.88,-695.25 2068.62,-695.25"/>
<polygon fill="none" stroke="#2e3436" points="2068.62,-695.25 2068.62,-717.75 2445.88,-717.75 2445.88,-695.25 2068.62,-695.25"/>
<text xml:space="preserve" text-anchor="start" x="2071.62" y="-701.45" font-family="Times New Roman,serif" font-size="14.00"> </text>
<polygon fill="#eeeeec" stroke="none" points="2068.62,-665.25 2068.62,-695.25 2445.88,-695.25 2445.88,-665.25 2068.62,-665.25"/>
<polygon fill="none" stroke="#2e3436" points="2068.62,-665.25 2068.62,-695.25 2445.88,-695.25 2445.88,-665.25 2068.62,-665.25"/>
<text xml:space="preserve" text-anchor="start" x="2071.62" y="-682.75" font-family="Helvetica,sans-Serif" font-size="10.00" fill="#2e3436">+inviaProspetti($cdl: string, $matricole: array): int</text>
<text xml:space="preserve" text-anchor="start" x="2071.62" y="-670.75" font-family="Helvetica,sans-Serif" font-size="10.00" fill="#2e3436">&#45;inviaEmail($infoEmail: array, $infoCdl: array, $matricola: int, $anagrafica: array): bool</text>
</g>
<!-- Mpdf\Mpdf -->
<g id="node11" class="node">
<title>Mpdf\Mpdf</title>
<polygon fill="#fcaf3e" stroke="none" points="1084,-714 1084,-734.25 1118.5,-734.25 1118.5,-714 1084,-714"/>
<polygon fill="none" stroke="#2e3436" points="1084,-714 1084,-734.25 1118.5,-734.25 1118.5,-714 1084,-714"/>
<text xml:space="preserve" text-anchor="start" x="1087" y="-720.85" font-family="Helvetica,sans-Serif" font-weight="bold" font-size="12.00" fill="#2e3436">Mpdf</text>
<polygon fill="#eeeeec" stroke="none" points="1084,-691.5 1084,-714 1118.5,-714 1118.5,-691.5 1084,-691.5"/>
<polygon fill="none" stroke="#2e3436" points="1084,-691.5 1084,-714 1118.5,-714 1118.5,-691.5 1084,-691.5"/>
<text xml:space="preserve" text-anchor="start" x="1087" y="-697.7" font-family="Times New Roman,serif" font-size="14.00"> </text>
<polygon fill="#eeeeec" stroke="none" points="1084,-669 1084,-691.5 1118.5,-691.5 1118.5,-669 1084,-669"/>
<polygon fill="none" stroke="#2e3436" points="1084,-669 1084,-691.5 1118.5,-691.5 1118.5,-669 1084,-669"/>
<text xml:space="preserve" text-anchor="start" x="1087" y="-675.2" font-family="Times New Roman,serif" font-size="14.00"> </text>
</g>
<!-- Mpdf\Mpdf&#45;&gt;ProspettoPDFCommissione -->
<g id="edge7" class="edge">
<title>Mpdf\Mpdf&#45;&gt;ProspettoPDFCommissione</title>
<path fill="none" stroke="#2e3436" d="M1101.25,-665.06C1101.25,-632.63 1101.25,-584.42 1101.25,-544.96"/>
</g>
<!-- ProspettoPDFLaureandoInformatica -->
<g id="node14" class="node">
<title>ProspettoPDFLaureandoInformatica</title>
<polygon fill="#fcaf3e" stroke="none" points="361.75,-68.5 361.75,-88.75 574.75,-88.75 574.75,-68.5 361.75,-68.5"/>
<polygon fill="none" stroke="#2e3436" points="361.75,-68.5 361.75,-88.75 574.75,-88.75 574.75,-68.5 361.75,-68.5"/>
<text xml:space="preserve" text-anchor="start" x="364.75" y="-75.35" font-family="Helvetica,sans-Serif" font-weight="bold" font-size="12.00" fill="#2e3436">ProspettoPDFLaureandoInformatica</text>
<polygon fill="#eeeeec" stroke="none" points="361.75,-46 361.75,-68.5 574.75,-68.5 574.75,-46 361.75,-46"/>
<polygon fill="none" stroke="#2e3436" points="361.75,-46 361.75,-68.5 574.75,-68.5 574.75,-46 361.75,-46"/>
<text xml:space="preserve" text-anchor="start" x="364.75" y="-52.2" font-family="Times New Roman,serif" font-size="14.00"> </text>
<polygon fill="#eeeeec" stroke="none" points="361.75,-4 361.75,-46 574.75,-46 574.75,-4 361.75,-4"/>
<polygon fill="none" stroke="#2e3436" points="361.75,-4 361.75,-46 574.75,-46 574.75,-4 361.75,-4"/>
<text xml:space="preserve" text-anchor="start" x="364.75" y="-33.5" font-family="Helvetica,sans-Serif" font-size="10.00" fill="#2e3436">+aggiungiColonnaInformatica(): void</text>
<text xml:space="preserve" text-anchor="start" x="364.75" y="-21.5" font-family="Helvetica,sans-Serif" font-size="10.00" fill="#2e3436">+aggiungiMedia(): void</text>
<text xml:space="preserve" text-anchor="start" x="364.75" y="-9.5" font-family="Helvetica,sans-Serif" font-size="10.00" fill="#2e3436">+aggiungiIntestazione(): void</text>
</g>
<!-- ProspettoPDFLaureando&#45;&gt;ProspettoPDFLaureandoInformatica -->
<g id="edge10" class="edge">
<title>ProspettoPDFLaureando&#45;&gt;ProspettoPDFLaureandoInformatica</title>
<path fill="none" stroke="#2e3436" d="M468.25,-117.63C468.25,-117.63 468.25,-92.38 468.25,-92.38"/>
<polygon fill="none" stroke="#2e3436" points="464.75,-117.63 468.25,-127.63 471.75,-117.63 464.75,-117.63"/>
</g>
<!-- DOMDocument -->
<g id="node13" class="node">
<title>DOMDocument</title>
<polygon fill="#fcaf3e" stroke="none" points="444.75,-489.5 444.75,-509.75 537.75,-509.75 537.75,-489.5 444.75,-489.5"/>
<polygon fill="none" stroke="#2e3436" points="444.75,-489.5 444.75,-509.75 537.75,-509.75 537.75,-489.5 444.75,-489.5"/>
<text xml:space="preserve" text-anchor="start" x="447.75" y="-496.35" font-family="Helvetica,sans-Serif" font-weight="bold" font-size="12.00" fill="#2e3436">DOMDocument</text>
<polygon fill="#eeeeec" stroke="none" points="444.75,-467 444.75,-489.5 537.75,-489.5 537.75,-467 444.75,-467"/>
<polygon fill="none" stroke="#2e3436" points="444.75,-467 444.75,-489.5 537.75,-489.5 537.75,-467 444.75,-467"/>
<text xml:space="preserve" text-anchor="start" x="447.75" y="-473.2" font-family="Times New Roman,serif" font-size="14.00"> </text>
<polygon fill="#eeeeec" stroke="none" points="444.75,-444.5 444.75,-467 537.75,-467 537.75,-444.5 444.75,-444.5"/>
<polygon fill="none" stroke="#2e3436" points="444.75,-444.5 444.75,-467 537.75,-467 537.75,-444.5 444.75,-444.5"/>
<text xml:space="preserve" text-anchor="start" x="447.75" y="-450.7" font-family="Times New Roman,serif" font-size="14.00"> </text>
</g>
<!-- DOMDocument&#45;&gt;ProspettoPDFLaureando -->
<g id="edge9" class="edge">
<title>DOMDocument&#45;&gt;ProspettoPDFLaureando</title>
<path fill="none" stroke="#2e3436" d="M491.25,-440.66C491.25,-404.63 491.25,-348.18 491.25,-300.75"/>
</g>
<!-- VisualizzaProspetti -->
<g id="node15" class="node">
<title>VisualizzaProspetti</title>
<polygon fill="#fcaf3e" stroke="none" points="2480.25,-711.75 2480.25,-732 2636.25,-732 2636.25,-711.75 2480.25,-711.75"/>
<polygon fill="none" stroke="#2e3436" points="2480.25,-711.75 2480.25,-732 2636.25,-732 2636.25,-711.75 2480.25,-711.75"/>
<text xml:space="preserve" text-anchor="start" x="2504.25" y="-718.6" font-family="Helvetica,sans-Serif" font-weight="bold" font-size="12.00" fill="#2e3436">VisualizzaProspetti</text>
<polygon fill="#eeeeec" stroke="none" points="2480.25,-689.25 2480.25,-711.75 2636.25,-711.75 2636.25,-689.25 2480.25,-689.25"/>
<polygon fill="none" stroke="#2e3436" points="2480.25,-689.25 2480.25,-711.75 2636.25,-711.75 2636.25,-689.25 2480.25,-689.25"/>
<text xml:space="preserve" text-anchor="start" x="2483.25" y="-695.45" font-family="Times New Roman,serif" font-size="14.00"> </text>
<polygon fill="#eeeeec" stroke="none" points="2480.25,-671.25 2480.25,-689.25 2636.25,-689.25 2636.25,-671.25 2480.25,-671.25"/>
<polygon fill="none" stroke="#2e3436" points="2480.25,-671.25 2480.25,-689.25 2636.25,-689.25 2636.25,-671.25 2480.25,-671.25"/>
<text xml:space="preserve" text-anchor="start" x="2483.25" y="-677.75" font-family="Helvetica,sans-Serif" text-decoration="underline" font-size="10.00" fill="#2e3436">+restituisciLink($cdl: string): string</text>
</g>
</g>
</svg>
